%TF.GenerationSoftware,KiCad,Pcbnew,8.0.8*%
%TF.CreationDate,2025-03-13T09:52:44+00:00*%
%TF.ProjectId,Beehive_Monitor_main_PCB,42656568-6976-4655-9f4d-6f6e69746f72,rev?*%
%TF.SameCoordinates,Original*%
%TF.FileFunction,Soldermask,Top*%
%TF.FilePolarity,Negative*%
%FSLAX46Y46*%
G04 Gerber Fmt 4.6, Leading zero omitted, Abs format (unit mm)*
G04 Created by KiCad (PCBNEW 8.0.8) date 2025-03-13 09:52:44*
%MOMM*%
%LPD*%
G01*
G04 APERTURE LIST*
G04 Aperture macros list*
%AMRoundRect*
0 Rectangle with rounded corners*
0 $1 Rounding radius*
0 $2 $3 $4 $5 $6 $7 $8 $9 X,Y pos of 4 corners*
0 Add a 4 corners polygon primitive as box body*
4,1,4,$2,$3,$4,$5,$6,$7,$8,$9,$2,$3,0*
0 Add four circle primitives for the rounded corners*
1,1,$1+$1,$2,$3*
1,1,$1+$1,$4,$5*
1,1,$1+$1,$6,$7*
1,1,$1+$1,$8,$9*
0 Add four rect primitives between the rounded corners*
20,1,$1+$1,$2,$3,$4,$5,0*
20,1,$1+$1,$4,$5,$6,$7,0*
20,1,$1+$1,$6,$7,$8,$9,0*
20,1,$1+$1,$8,$9,$2,$3,0*%
%AMFreePoly0*
4,1,19,0.500000,-0.750000,0.000000,-0.750000,0.000000,-0.744911,-0.071157,-0.744911,-0.207708,-0.704816,-0.327430,-0.627875,-0.420627,-0.520320,-0.479746,-0.390866,-0.500000,-0.250000,-0.500000,0.250000,-0.479746,0.390866,-0.420627,0.520320,-0.327430,0.627875,-0.207708,0.704816,-0.071157,0.744911,0.000000,0.744911,0.000000,0.750000,0.500000,0.750000,0.500000,-0.750000,0.500000,-0.750000,
$1*%
%AMFreePoly1*
4,1,19,0.000000,0.744911,0.071157,0.744911,0.207708,0.704816,0.327430,0.627875,0.420627,0.520320,0.479746,0.390866,0.500000,0.250000,0.500000,-0.250000,0.479746,-0.390866,0.420627,-0.520320,0.327430,-0.627875,0.207708,-0.704816,0.071157,-0.744911,0.000000,-0.744911,0.000000,-0.750000,-0.500000,-0.750000,-0.500000,0.750000,0.000000,0.750000,0.000000,0.744911,0.000000,0.744911,
$1*%
%AMFreePoly2*
4,1,19,0.550000,-0.750000,0.000000,-0.750000,0.000000,-0.744911,-0.071157,-0.744911,-0.207708,-0.704816,-0.327430,-0.627875,-0.420627,-0.520320,-0.479746,-0.390866,-0.500000,-0.250000,-0.500000,0.250000,-0.479746,0.390866,-0.420627,0.520320,-0.327430,0.627875,-0.207708,0.704816,-0.071157,0.744911,0.000000,0.744911,0.000000,0.750000,0.550000,0.750000,0.550000,-0.750000,0.550000,-0.750000,
$1*%
%AMFreePoly3*
4,1,19,0.000000,0.744911,0.071157,0.744911,0.207708,0.704816,0.327430,0.627875,0.420627,0.520320,0.479746,0.390866,0.500000,0.250000,0.500000,-0.250000,0.479746,-0.390866,0.420627,-0.520320,0.327430,-0.627875,0.207708,-0.704816,0.071157,-0.744911,0.000000,-0.744911,0.000000,-0.750000,-0.550000,-0.750000,-0.550000,0.750000,0.000000,0.750000,0.000000,0.744911,0.000000,0.744911,
$1*%
G04 Aperture macros list end*
%ADD10RoundRect,0.200000X0.275000X-0.200000X0.275000X0.200000X-0.275000X0.200000X-0.275000X-0.200000X0*%
%ADD11RoundRect,0.200000X-0.200000X-0.275000X0.200000X-0.275000X0.200000X0.275000X-0.200000X0.275000X0*%
%ADD12RoundRect,0.250000X-0.620000X-0.845000X0.620000X-0.845000X0.620000X0.845000X-0.620000X0.845000X0*%
%ADD13O,1.740000X2.190000*%
%ADD14RoundRect,0.237500X0.300000X0.237500X-0.300000X0.237500X-0.300000X-0.237500X0.300000X-0.237500X0*%
%ADD15RoundRect,0.225000X0.250000X-0.225000X0.250000X0.225000X-0.250000X0.225000X-0.250000X-0.225000X0*%
%ADD16RoundRect,0.150000X0.150000X-0.512500X0.150000X0.512500X-0.150000X0.512500X-0.150000X-0.512500X0*%
%ADD17RoundRect,0.140000X-0.140000X-0.170000X0.140000X-0.170000X0.140000X0.170000X-0.140000X0.170000X0*%
%ADD18RoundRect,0.250000X0.475000X-0.250000X0.475000X0.250000X-0.475000X0.250000X-0.475000X-0.250000X0*%
%ADD19RoundRect,0.135000X-0.185000X0.135000X-0.185000X-0.135000X0.185000X-0.135000X0.185000X0.135000X0*%
%ADD20C,1.440000*%
%ADD21RoundRect,0.135000X0.135000X0.185000X-0.135000X0.185000X-0.135000X-0.185000X0.135000X-0.185000X0*%
%ADD22RoundRect,0.150000X-0.825000X-0.150000X0.825000X-0.150000X0.825000X0.150000X-0.825000X0.150000X0*%
%ADD23RoundRect,0.200000X-0.275000X0.200000X-0.275000X-0.200000X0.275000X-0.200000X0.275000X0.200000X0*%
%ADD24RoundRect,0.225000X0.225000X0.250000X-0.225000X0.250000X-0.225000X-0.250000X0.225000X-0.250000X0*%
%ADD25RoundRect,0.200000X0.200000X0.275000X-0.200000X0.275000X-0.200000X-0.275000X0.200000X-0.275000X0*%
%ADD26RoundRect,0.225000X-0.225000X-0.250000X0.225000X-0.250000X0.225000X0.250000X-0.225000X0.250000X0*%
%ADD27RoundRect,0.140000X0.170000X-0.140000X0.170000X0.140000X-0.170000X0.140000X-0.170000X-0.140000X0*%
%ADD28FreePoly0,180.000000*%
%ADD29FreePoly1,180.000000*%
%ADD30RoundRect,0.250000X-0.650000X0.325000X-0.650000X-0.325000X0.650000X-0.325000X0.650000X0.325000X0*%
%ADD31RoundRect,0.155000X0.155000X-0.212500X0.155000X0.212500X-0.155000X0.212500X-0.155000X-0.212500X0*%
%ADD32RoundRect,0.150000X0.825000X0.150000X-0.825000X0.150000X-0.825000X-0.150000X0.825000X-0.150000X0*%
%ADD33RoundRect,0.140000X-0.170000X0.140000X-0.170000X-0.140000X0.170000X-0.140000X0.170000X0.140000X0*%
%ADD34RoundRect,0.135000X-0.135000X-0.185000X0.135000X-0.185000X0.135000X0.185000X-0.135000X0.185000X0*%
%ADD35RoundRect,0.135000X0.185000X-0.135000X0.185000X0.135000X-0.185000X0.135000X-0.185000X-0.135000X0*%
%ADD36RoundRect,0.225000X-0.250000X0.225000X-0.250000X-0.225000X0.250000X-0.225000X0.250000X0.225000X0*%
%ADD37RoundRect,0.250000X-0.250000X-0.475000X0.250000X-0.475000X0.250000X0.475000X-0.250000X0.475000X0*%
%ADD38RoundRect,0.250000X-0.475000X0.250000X-0.475000X-0.250000X0.475000X-0.250000X0.475000X0.250000X0*%
%ADD39RoundRect,0.140000X0.140000X0.170000X-0.140000X0.170000X-0.140000X-0.170000X0.140000X-0.170000X0*%
%ADD40FreePoly2,90.000000*%
%ADD41R,1.500000X1.000000*%
%ADD42FreePoly3,90.000000*%
%ADD43R,1.700000X1.700000*%
%ADD44RoundRect,0.250500X-0.499500X-0.499500X0.499500X-0.499500X0.499500X0.499500X-0.499500X0.499500X0*%
%ADD45C,1.500000*%
%ADD46R,6.360000X5.280000*%
%ADD47R,5.330000X5.590000*%
%ADD48RoundRect,0.237500X-0.237500X0.300000X-0.237500X-0.300000X0.237500X-0.300000X0.237500X0.300000X0*%
%ADD49RoundRect,0.100000X-0.712500X-0.100000X0.712500X-0.100000X0.712500X0.100000X-0.712500X0.100000X0*%
%ADD50RoundRect,0.250000X0.250000X0.475000X-0.250000X0.475000X-0.250000X-0.475000X0.250000X-0.475000X0*%
%ADD51O,1.700000X1.700000*%
%ADD52RoundRect,0.237500X-0.250000X-0.237500X0.250000X-0.237500X0.250000X0.237500X-0.250000X0.237500X0*%
%ADD53R,0.280000X0.850000*%
%ADD54R,0.850000X0.280000*%
%ADD55R,2.050000X2.050000*%
%ADD56RoundRect,0.150000X-0.587500X-0.150000X0.587500X-0.150000X0.587500X0.150000X-0.587500X0.150000X0*%
%ADD57RoundRect,0.237500X-0.300000X-0.237500X0.300000X-0.237500X0.300000X0.237500X-0.300000X0.237500X0*%
%ADD58RoundRect,0.150000X-0.150000X0.825000X-0.150000X-0.825000X0.150000X-0.825000X0.150000X0.825000X0*%
%ADD59RoundRect,0.237500X0.250000X0.237500X-0.250000X0.237500X-0.250000X-0.237500X0.250000X-0.237500X0*%
%ADD60RoundRect,0.237500X-0.237500X0.250000X-0.237500X-0.250000X0.237500X-0.250000X0.237500X0.250000X0*%
%ADD61RoundRect,0.100000X-0.637500X-0.100000X0.637500X-0.100000X0.637500X0.100000X-0.637500X0.100000X0*%
%ADD62RoundRect,0.237500X0.237500X-0.300000X0.237500X0.300000X-0.237500X0.300000X-0.237500X-0.300000X0*%
%ADD63R,3.000000X1.000000*%
%ADD64RoundRect,0.250000X1.100000X-0.500000X1.100000X0.500000X-1.100000X0.500000X-1.100000X-0.500000X0*%
%ADD65RoundRect,0.675000X0.675000X-0.675000X0.675000X0.675000X-0.675000X0.675000X-0.675000X-0.675000X0*%
%ADD66C,2.700000*%
%ADD67RoundRect,0.237500X0.237500X-0.250000X0.237500X0.250000X-0.237500X0.250000X-0.237500X-0.250000X0*%
%ADD68RoundRect,0.155000X-0.212500X-0.155000X0.212500X-0.155000X0.212500X0.155000X-0.212500X0.155000X0*%
%ADD69RoundRect,0.250000X-0.500000X-1.100000X0.500000X-1.100000X0.500000X1.100000X-0.500000X1.100000X0*%
%ADD70RoundRect,0.250000X-0.325000X-0.650000X0.325000X-0.650000X0.325000X0.650000X-0.325000X0.650000X0*%
%ADD71RoundRect,0.150000X0.512500X0.150000X-0.512500X0.150000X-0.512500X-0.150000X0.512500X-0.150000X0*%
%ADD72RoundRect,0.150000X0.725000X0.150000X-0.725000X0.150000X-0.725000X-0.150000X0.725000X-0.150000X0*%
%ADD73C,2.200000*%
%ADD74RoundRect,0.250000X-0.845000X0.620000X-0.845000X-0.620000X0.845000X-0.620000X0.845000X0.620000X0*%
%ADD75O,2.190000X1.740000*%
%ADD76RoundRect,0.250000X0.500000X1.100000X-0.500000X1.100000X-0.500000X-1.100000X0.500000X-1.100000X0*%
%ADD77RoundRect,0.155000X-0.155000X0.212500X-0.155000X-0.212500X0.155000X-0.212500X0.155000X0.212500X0*%
%ADD78RoundRect,0.075000X-0.650000X-0.075000X0.650000X-0.075000X0.650000X0.075000X-0.650000X0.075000X0*%
%ADD79RoundRect,0.250000X0.620000X0.845000X-0.620000X0.845000X-0.620000X-0.845000X0.620000X-0.845000X0*%
%ADD80RoundRect,0.250000X0.412500X0.650000X-0.412500X0.650000X-0.412500X-0.650000X0.412500X-0.650000X0*%
%ADD81RoundRect,0.150000X0.150000X-0.587500X0.150000X0.587500X-0.150000X0.587500X-0.150000X-0.587500X0*%
%ADD82FreePoly2,0.000000*%
%ADD83R,1.000000X1.500000*%
%ADD84FreePoly3,0.000000*%
%ADD85RoundRect,0.100000X0.712500X0.100000X-0.712500X0.100000X-0.712500X-0.100000X0.712500X-0.100000X0*%
%ADD86RoundRect,0.155000X0.212500X0.155000X-0.212500X0.155000X-0.212500X-0.155000X0.212500X-0.155000X0*%
%ADD87RoundRect,0.150000X0.150000X-0.825000X0.150000X0.825000X-0.150000X0.825000X-0.150000X-0.825000X0*%
G04 APERTURE END LIST*
D10*
%TO.C,R172*%
X211880000Y-159175000D03*
X211880000Y-157525000D03*
%TD*%
D11*
%TO.C,R153*%
X203415000Y-121120000D03*
X205065000Y-121120000D03*
%TD*%
D12*
%TO.C,PI_PWR1*%
X118300000Y-59770000D03*
D13*
X120840000Y-59770000D03*
%TD*%
D14*
%TO.C,C95*%
X212515000Y-134350000D03*
X210790000Y-134350000D03*
%TD*%
D11*
%TO.C,R47*%
X133980000Y-74210000D03*
X135630000Y-74210000D03*
%TD*%
D15*
%TO.C,C84*%
X150531250Y-131567500D03*
X150531250Y-130017500D03*
%TD*%
D16*
%TO.C,IC4*%
X110025000Y-147385000D03*
X110975000Y-147385000D03*
X111925000Y-147385000D03*
X111925000Y-145110000D03*
X110025000Y-145110000D03*
%TD*%
D17*
%TO.C,Cboot1*%
X86340000Y-169000000D03*
X87300000Y-169000000D03*
%TD*%
D18*
%TO.C,C77*%
X210240000Y-87825907D03*
X210240000Y-85925907D03*
%TD*%
D19*
%TO.C,R17*%
X114650000Y-146740000D03*
X114650000Y-147760000D03*
%TD*%
D20*
%TO.C,RV7*%
X120665000Y-90760000D03*
X118125000Y-90760000D03*
X115585000Y-90760000D03*
%TD*%
D11*
%TO.C,R141*%
X85390000Y-136370000D03*
X87040000Y-136370000D03*
%TD*%
D10*
%TO.C,R60*%
X151110000Y-98995000D03*
X151110000Y-97345000D03*
%TD*%
D21*
%TO.C,R82*%
X179090000Y-94845907D03*
X178070000Y-94845907D03*
%TD*%
D22*
%TO.C,U1*%
X145830000Y-84050000D03*
X145830000Y-85320000D03*
X145830000Y-86590000D03*
X145830000Y-87860000D03*
X145830000Y-89130000D03*
X145830000Y-90400000D03*
X145830000Y-91670000D03*
X150780000Y-91670000D03*
X150780000Y-90400000D03*
X150780000Y-89130000D03*
X150780000Y-87860000D03*
X150780000Y-86590000D03*
X150780000Y-85320000D03*
X150780000Y-84050000D03*
%TD*%
D23*
%TO.C,R113*%
X150531250Y-125787500D03*
X150531250Y-127437500D03*
%TD*%
D15*
%TO.C,C63*%
X158990000Y-98965000D03*
X158990000Y-97415000D03*
%TD*%
D24*
%TO.C,C111*%
X190802499Y-116532500D03*
X189252499Y-116532500D03*
%TD*%
D25*
%TO.C,R79*%
X184840000Y-82430000D03*
X183190000Y-82430000D03*
%TD*%
D26*
%TO.C,C31*%
X111610000Y-130290000D03*
X113160000Y-130290000D03*
%TD*%
D27*
%TO.C,C24*%
X130900000Y-128660000D03*
X130900000Y-127700000D03*
%TD*%
D28*
%TO.C,JP1*%
X294960000Y-130690000D03*
D29*
X293660000Y-130690000D03*
%TD*%
D17*
%TO.C,C97*%
X138420000Y-172310000D03*
X139380000Y-172310000D03*
%TD*%
D30*
%TO.C,C20*%
X128525000Y-184900000D03*
X128525000Y-187850000D03*
%TD*%
D31*
%TO.C,C68*%
X150205000Y-68417500D03*
X150205000Y-67282500D03*
%TD*%
D22*
%TO.C,U3*%
X192740000Y-74795907D03*
X192740000Y-76065907D03*
X192740000Y-77335907D03*
X192740000Y-78605907D03*
X192740000Y-79875907D03*
X192740000Y-81145907D03*
X192740000Y-82415907D03*
X197690000Y-82415907D03*
X197690000Y-81145907D03*
X197690000Y-79875907D03*
X197690000Y-78605907D03*
X197690000Y-77335907D03*
X197690000Y-76065907D03*
X197690000Y-74795907D03*
%TD*%
D32*
%TO.C,IC2*%
X94220000Y-117770000D03*
X94220000Y-116500000D03*
X94220000Y-115230000D03*
X94220000Y-113960000D03*
X89270000Y-113960000D03*
X89270000Y-115230000D03*
X89270000Y-116500000D03*
X89270000Y-117770000D03*
%TD*%
D33*
%TO.C,C89*%
X159325000Y-152107500D03*
X159325000Y-153067500D03*
%TD*%
D34*
%TO.C,R146*%
X83225552Y-149554448D03*
X84245552Y-149554448D03*
%TD*%
D35*
%TO.C,R71*%
X142145000Y-72940000D03*
X142145000Y-71920000D03*
%TD*%
D11*
%TO.C,R13*%
X80340000Y-86810000D03*
X81990000Y-86810000D03*
%TD*%
%TO.C,R154*%
X189425000Y-133710000D03*
X191075000Y-133710000D03*
%TD*%
D36*
%TO.C,C59*%
X132690000Y-78975000D03*
X132690000Y-80525000D03*
%TD*%
D17*
%TO.C,C57*%
X134895000Y-68690000D03*
X135855000Y-68690000D03*
%TD*%
D37*
%TO.C,C2*%
X72025000Y-90275000D03*
X73925000Y-90275000D03*
%TD*%
D11*
%TO.C,R132*%
X165016250Y-115172500D03*
X166666250Y-115172500D03*
%TD*%
D25*
%TO.C,R92*%
X200677500Y-96585907D03*
X199027500Y-96585907D03*
%TD*%
D38*
%TO.C,C72*%
X182520000Y-77670907D03*
X182520000Y-79570907D03*
%TD*%
D39*
%TO.C,C93*%
X191265000Y-129680000D03*
X190305000Y-129680000D03*
%TD*%
D40*
%TO.C,JP5*%
X183247500Y-150860000D03*
D41*
X183247500Y-149560000D03*
D42*
X183247500Y-148260000D03*
%TD*%
D11*
%TO.C,R116*%
X195170000Y-142730000D03*
X196820000Y-142730000D03*
%TD*%
D10*
%TO.C,R167*%
X155940000Y-139625000D03*
X155940000Y-137975000D03*
%TD*%
D34*
%TO.C,R96*%
X203155000Y-93635907D03*
X204175000Y-93635907D03*
%TD*%
D21*
%TO.C,R168*%
X154836250Y-125187500D03*
X153816250Y-125187500D03*
%TD*%
D39*
%TO.C,C56*%
X140992500Y-86900000D03*
X140032500Y-86900000D03*
%TD*%
D11*
%TO.C,R118*%
X153201250Y-122687500D03*
X154851250Y-122687500D03*
%TD*%
D10*
%TO.C,R50*%
X132690000Y-84700000D03*
X132690000Y-83050000D03*
%TD*%
D21*
%TO.C,R28*%
X134740000Y-135480000D03*
X133720000Y-135480000D03*
%TD*%
D35*
%TO.C,R149*%
X173500000Y-161510000D03*
X173500000Y-160490000D03*
%TD*%
D10*
%TO.C,R121*%
X149495000Y-186635000D03*
X149495000Y-184985000D03*
%TD*%
D39*
%TO.C,C102*%
X78400000Y-140604448D03*
X77440000Y-140604448D03*
%TD*%
D43*
%TO.C,TP_4*%
X119620000Y-104200000D03*
%TD*%
D39*
%TO.C,C44*%
X86320000Y-119210000D03*
X85360000Y-119210000D03*
%TD*%
D40*
%TO.C,JP8*%
X183690000Y-159000000D03*
D41*
X183690000Y-157700000D03*
D42*
X183690000Y-156400000D03*
%TD*%
D11*
%TO.C,R95*%
X199040000Y-93635907D03*
X200690000Y-93635907D03*
%TD*%
D43*
%TO.C,TP_2*%
X79300000Y-108480000D03*
%TD*%
D19*
%TO.C,R133*%
X165011250Y-117842500D03*
X165011250Y-118862500D03*
%TD*%
D28*
%TO.C,PE_9*%
X222600000Y-120180000D03*
D29*
X221300000Y-120180000D03*
%TD*%
D35*
%TO.C,R143*%
X81190000Y-132470000D03*
X81190000Y-131450000D03*
%TD*%
D44*
%TO.C,K2*%
X172530000Y-170365000D03*
D45*
X172530000Y-175445000D03*
X172530000Y-177985000D03*
X172530000Y-180525000D03*
X172530000Y-183065000D03*
X177610000Y-183065000D03*
X177610000Y-180525000D03*
X177610000Y-177985000D03*
X177610000Y-175445000D03*
X177610000Y-170365000D03*
%TD*%
D35*
%TO.C,R500*%
X78340000Y-92750000D03*
X78340000Y-91730000D03*
%TD*%
D23*
%TO.C,R6*%
X71350000Y-57312500D03*
X71350000Y-58962500D03*
%TD*%
D46*
%TO.C,L1*%
X96125000Y-57000000D03*
D47*
X91050000Y-79075000D03*
X101200000Y-79075000D03*
%TD*%
D11*
%TO.C,R156*%
X199435000Y-142730000D03*
X201085000Y-142730000D03*
%TD*%
D20*
%TO.C,RV5*%
X109730000Y-125130000D03*
X107190000Y-125130000D03*
X104650000Y-125130000D03*
%TD*%
D21*
%TO.C,R46*%
X135850000Y-76840000D03*
X134830000Y-76840000D03*
%TD*%
D48*
%TO.C,C7*%
X73500000Y-71875000D03*
X73500000Y-73600000D03*
%TD*%
D19*
%TO.C,R150*%
X153915000Y-151747500D03*
X153915000Y-152767500D03*
%TD*%
D34*
%TO.C,R36*%
X123553750Y-124426250D03*
X124573750Y-124426250D03*
%TD*%
D25*
%TO.C,R91*%
X203960000Y-99285907D03*
X202310000Y-99285907D03*
%TD*%
D38*
%TO.C,C14*%
X107975000Y-150080000D03*
X107975000Y-151980000D03*
%TD*%
D19*
%TO.C,R4*%
X79300000Y-103880000D03*
X79300000Y-104900000D03*
%TD*%
D49*
%TO.C,IC6*%
X125552500Y-130410000D03*
X125552500Y-131060000D03*
X125552500Y-131710000D03*
X125552500Y-132360000D03*
X129777500Y-132360000D03*
X129777500Y-131710000D03*
X129777500Y-131060000D03*
X129777500Y-130410000D03*
%TD*%
D39*
%TO.C,C55*%
X140992500Y-88870000D03*
X140032500Y-88870000D03*
%TD*%
D27*
%TO.C,C23*%
X129202500Y-128660000D03*
X129202500Y-127700000D03*
%TD*%
%TO.C,C100*%
X149770000Y-167640000D03*
X149770000Y-166680000D03*
%TD*%
D25*
%TO.C,R155*%
X191085000Y-135820000D03*
X189435000Y-135820000D03*
%TD*%
D50*
%TO.C,C112*%
X211672499Y-112542500D03*
X209772499Y-112542500D03*
%TD*%
D43*
%TO.C,TC_1_2*%
X209900000Y-60495000D03*
D51*
X209900000Y-57955000D03*
X212440000Y-60495000D03*
X212440000Y-57955000D03*
X214980000Y-60495000D03*
X214980000Y-57955000D03*
X217520000Y-60495000D03*
X217520000Y-57955000D03*
X220060000Y-60495000D03*
X220060000Y-57955000D03*
X222600000Y-60495000D03*
X222600000Y-57955000D03*
X225140000Y-60495000D03*
X225140000Y-57955000D03*
%TD*%
D19*
%TO.C,R55*%
X141380000Y-97900000D03*
X141380000Y-98920000D03*
%TD*%
D34*
%TO.C,R34*%
X118778750Y-132320000D03*
X119798750Y-132320000D03*
%TD*%
D11*
%TO.C,R11*%
X76450000Y-68900000D03*
X78100000Y-68900000D03*
%TD*%
D14*
%TO.C,C39*%
X147200000Y-57170000D03*
X145475000Y-57170000D03*
%TD*%
D52*
%TO.C,R16*%
X85300000Y-176225000D03*
X87125000Y-176225000D03*
%TD*%
D10*
%TO.C,R158*%
X212525000Y-138715000D03*
X212525000Y-137065000D03*
%TD*%
D48*
%TO.C,C27*%
X128650000Y-137397500D03*
X128650000Y-139122500D03*
%TD*%
D21*
%TO.C,R72*%
X115525000Y-95360000D03*
X114505000Y-95360000D03*
%TD*%
D11*
%TO.C,R86*%
X188920000Y-94625907D03*
X190570000Y-94625907D03*
%TD*%
D53*
%TO.C,IC3*%
X70825000Y-61650000D03*
D54*
X69850000Y-62375000D03*
X69850000Y-62875000D03*
X69850000Y-63375000D03*
X69850000Y-63875000D03*
X69850000Y-64375000D03*
D53*
X70825000Y-65100000D03*
X72325000Y-65100000D03*
D54*
X73300000Y-64375000D03*
X73300000Y-63875000D03*
X73300000Y-63375000D03*
X73300000Y-62875000D03*
X73300000Y-62375000D03*
D53*
X72325000Y-61650000D03*
D55*
X71575000Y-63375000D03*
%TD*%
D11*
%TO.C,R173*%
X194920000Y-162580000D03*
X196570000Y-162580000D03*
%TD*%
D56*
%TO.C,Q3*%
X136770000Y-180010000D03*
X136770000Y-181910000D03*
X138645000Y-180960000D03*
%TD*%
D50*
%TO.C,C117*%
X211880000Y-154110000D03*
X209980000Y-154110000D03*
%TD*%
D27*
%TO.C,C99*%
X148120000Y-167640000D03*
X148120000Y-166680000D03*
%TD*%
D21*
%TO.C,R104*%
X204162500Y-96585907D03*
X203142500Y-96585907D03*
%TD*%
D35*
%TO.C,R142*%
X84425552Y-132470000D03*
X84425552Y-131450000D03*
%TD*%
D39*
%TO.C,C114*%
X195390000Y-156820000D03*
X194430000Y-156820000D03*
%TD*%
D20*
%TO.C,RV11*%
X168710000Y-160487500D03*
X166170000Y-160487500D03*
X163630000Y-160487500D03*
%TD*%
D43*
%TO.C,LEDs1*%
X150890000Y-192125000D03*
D51*
X150890000Y-194665000D03*
X148350000Y-192125000D03*
X148350000Y-194665000D03*
X145810000Y-192125000D03*
X145810000Y-194665000D03*
X143270000Y-192125000D03*
X143270000Y-194665000D03*
X140730000Y-192125000D03*
X140730000Y-194665000D03*
%TD*%
D52*
%TO.C,R42*%
X107407500Y-98200000D03*
X109232500Y-98200000D03*
%TD*%
D23*
%TO.C,R15*%
X82750000Y-164300000D03*
X82750000Y-165950000D03*
%TD*%
D39*
%TO.C,C109*%
X195062499Y-115372500D03*
X194102499Y-115372500D03*
%TD*%
D57*
%TO.C,C34*%
X123201250Y-127166250D03*
X124926250Y-127166250D03*
%TD*%
D24*
%TO.C,C116*%
X190885000Y-157700000D03*
X189335000Y-157700000D03*
%TD*%
D18*
%TO.C,C17*%
X186450000Y-99565907D03*
X186450000Y-97665907D03*
%TD*%
D58*
%TO.C,U5*%
X157800000Y-143587500D03*
X156530000Y-143587500D03*
X155260000Y-143587500D03*
X153990000Y-143587500D03*
X153990000Y-148537500D03*
X155260000Y-148537500D03*
X156530000Y-148537500D03*
X157800000Y-148537500D03*
%TD*%
D59*
%TO.C,R26*%
X120420000Y-120360000D03*
X118595000Y-120360000D03*
%TD*%
D17*
%TO.C,Cboot5*%
X75270000Y-60925000D03*
X76230000Y-60925000D03*
%TD*%
D60*
%TO.C,R63*%
X159000000Y-93025000D03*
X159000000Y-94850000D03*
%TD*%
D21*
%TO.C,R125*%
X138217500Y-177385000D03*
X137197500Y-177385000D03*
%TD*%
D52*
%TO.C,R75*%
X177027500Y-74845907D03*
X178852500Y-74845907D03*
%TD*%
D23*
%TO.C,R111*%
X150531250Y-121447500D03*
X150531250Y-123097500D03*
%TD*%
D61*
%TO.C,IC9*%
X142245000Y-169060000D03*
X142245000Y-169710000D03*
X142245000Y-170360000D03*
X142245000Y-171010000D03*
X142245000Y-171660000D03*
X142245000Y-172310000D03*
X142245000Y-172960000D03*
X142245000Y-173610000D03*
X147970000Y-173610000D03*
X147970000Y-172960000D03*
X147970000Y-172310000D03*
X147970000Y-171660000D03*
X147970000Y-171010000D03*
X147970000Y-170360000D03*
X147970000Y-169710000D03*
X147970000Y-169060000D03*
%TD*%
D56*
%TO.C,Q1*%
X150095000Y-180010000D03*
X150095000Y-181910000D03*
X151970000Y-180960000D03*
%TD*%
D14*
%TO.C,C28*%
X135782500Y-129426250D03*
X134057500Y-129426250D03*
%TD*%
D21*
%TO.C,R39*%
X158415000Y-59317500D03*
X157395000Y-59317500D03*
%TD*%
D12*
%TO.C,mic_1_LDR1*%
X188360000Y-188360000D03*
D13*
X190900000Y-188360000D03*
X193440000Y-188360000D03*
X195980000Y-188360000D03*
%TD*%
D62*
%TO.C,C38*%
X153790000Y-58032500D03*
X153790000Y-56307500D03*
%TD*%
D12*
%TO.C,mic_2*%
X204230000Y-188360000D03*
D13*
X206770000Y-188360000D03*
%TD*%
D18*
%TO.C,C74*%
X179050000Y-99595907D03*
X179050000Y-97695907D03*
%TD*%
D15*
%TO.C,C86*%
X158936250Y-121572500D03*
X158936250Y-120022500D03*
%TD*%
D23*
%TO.C,R65*%
X156040000Y-97360000D03*
X156040000Y-99010000D03*
%TD*%
D10*
%TO.C,R110*%
X152645000Y-139605000D03*
X152645000Y-137955000D03*
%TD*%
D31*
%TO.C,C67*%
X152195000Y-68427500D03*
X152195000Y-67292500D03*
%TD*%
D37*
%TO.C,Css5*%
X75375000Y-65750000D03*
X77275000Y-65750000D03*
%TD*%
D11*
%TO.C,R33*%
X119695000Y-130290000D03*
X121345000Y-130290000D03*
%TD*%
D46*
%TO.C,L2*%
X110350000Y-159480000D03*
D47*
X105275000Y-181555000D03*
X115425000Y-181555000D03*
%TD*%
D28*
%TO.C,PF_14*%
X222600000Y-115090000D03*
D29*
X221300000Y-115090000D03*
%TD*%
D11*
%TO.C,R93*%
X206520000Y-90735907D03*
X208170000Y-90735907D03*
%TD*%
D38*
%TO.C,C73*%
X179160000Y-84975907D03*
X179160000Y-86875907D03*
%TD*%
D22*
%TO.C,IC8*%
X129430000Y-107830000D03*
X129430000Y-109100000D03*
X129430000Y-110370000D03*
X129430000Y-111640000D03*
X129430000Y-112910000D03*
X129430000Y-114180000D03*
X129430000Y-115450000D03*
X134380000Y-115450000D03*
X134380000Y-114180000D03*
X134380000Y-112910000D03*
X134380000Y-111640000D03*
X134380000Y-110370000D03*
X134380000Y-109100000D03*
X134380000Y-107830000D03*
%TD*%
D21*
%TO.C,R88*%
X195350000Y-91315907D03*
X194330000Y-91315907D03*
%TD*%
D11*
%TO.C,R157*%
X203685000Y-142720000D03*
X205335000Y-142720000D03*
%TD*%
D52*
%TO.C,R25*%
X118595000Y-123250000D03*
X120420000Y-123250000D03*
%TD*%
D15*
%TO.C,C62*%
X156040000Y-94715000D03*
X156040000Y-93165000D03*
%TD*%
D19*
%TO.C,R105*%
X146101250Y-104542500D03*
X146101250Y-105562500D03*
%TD*%
D10*
%TO.C,R151*%
X145485000Y-145182500D03*
X145485000Y-143532500D03*
%TD*%
D11*
%TO.C,R101*%
X181270000Y-92015907D03*
X182920000Y-92015907D03*
%TD*%
%TO.C,R32*%
X115675000Y-130290000D03*
X117325000Y-130290000D03*
%TD*%
D26*
%TO.C,C60*%
X134310000Y-96340000D03*
X135860000Y-96340000D03*
%TD*%
D20*
%TO.C,RV6*%
X109730000Y-106250000D03*
X107190000Y-106250000D03*
X104650000Y-106250000D03*
%TD*%
D63*
%TO.C,J1*%
X283680000Y-140840000D03*
X288720000Y-140840000D03*
X283680000Y-138300000D03*
X288720000Y-138300000D03*
X283680000Y-135760000D03*
X288720000Y-135760000D03*
X283680000Y-133220000D03*
X288720000Y-133220000D03*
X283680000Y-130680000D03*
X288720000Y-130680000D03*
X283680000Y-128140000D03*
X288720000Y-128140000D03*
X283680000Y-125600000D03*
X288720000Y-125600000D03*
X283680000Y-123060000D03*
X288720000Y-123060000D03*
%TD*%
D25*
%TO.C,R37*%
X160415000Y-61957500D03*
X158765000Y-61957500D03*
%TD*%
%TO.C,R159*%
X190822499Y-110142500D03*
X189172499Y-110142500D03*
%TD*%
D64*
%TO.C,D4*%
X95390000Y-150820000D03*
X95390000Y-146020000D03*
%TD*%
D21*
%TO.C,R56*%
X135865000Y-93700000D03*
X134845000Y-93700000D03*
%TD*%
D22*
%TO.C,U4*%
X153366250Y-104800000D03*
X153366250Y-106070000D03*
X153366250Y-107340000D03*
X153366250Y-108610000D03*
X153366250Y-109880000D03*
X153366250Y-111150000D03*
X153366250Y-112420000D03*
X158316250Y-112420000D03*
X158316250Y-111150000D03*
X158316250Y-109880000D03*
X158316250Y-108610000D03*
X158316250Y-107340000D03*
X158316250Y-106070000D03*
X158316250Y-104800000D03*
%TD*%
D33*
%TO.C,C107*%
X220845000Y-77020000D03*
X220845000Y-77980000D03*
%TD*%
D25*
%TO.C,R38*%
X155755000Y-61957500D03*
X154105000Y-61957500D03*
%TD*%
D39*
%TO.C,C41*%
X141377500Y-62972500D03*
X140417500Y-62972500D03*
%TD*%
D25*
%TO.C,R89*%
X196275000Y-99275907D03*
X194625000Y-99275907D03*
%TD*%
D65*
%TO.C,F1*%
X61000000Y-115825000D03*
X61000000Y-109065000D03*
D66*
X61000000Y-99475000D03*
X61000000Y-92715000D03*
%TD*%
D18*
%TO.C,C75*%
X189780000Y-99565907D03*
X189780000Y-97665907D03*
%TD*%
D52*
%TO.C,R102*%
X194667500Y-86205907D03*
X196492500Y-86205907D03*
%TD*%
D35*
%TO.C,R175*%
X211880000Y-162570000D03*
X211880000Y-161550000D03*
%TD*%
D27*
%TO.C,C81*%
X148511250Y-105532500D03*
X148511250Y-104572500D03*
%TD*%
D50*
%TO.C,C35*%
X165170000Y-57707500D03*
X163270000Y-57707500D03*
%TD*%
D21*
%TO.C,R138*%
X160292500Y-177360000D03*
X159272500Y-177360000D03*
%TD*%
D67*
%TO.C,R115*%
X147211250Y-123332500D03*
X147211250Y-121507500D03*
%TD*%
%TO.C,R7*%
X74150000Y-59050000D03*
X74150000Y-57225000D03*
%TD*%
D39*
%TO.C,C78*%
X208910000Y-77695907D03*
X207950000Y-77695907D03*
%TD*%
D52*
%TO.C,R62*%
X155175000Y-85320000D03*
X157000000Y-85320000D03*
%TD*%
D23*
%TO.C,R22*%
X107315000Y-145365000D03*
X107315000Y-147015000D03*
%TD*%
D20*
%TO.C,RV8*%
X167585000Y-150077500D03*
X167585000Y-147537500D03*
X167585000Y-144997500D03*
%TD*%
D68*
%TO.C,C71*%
X177962500Y-69393407D03*
X179097500Y-69393407D03*
%TD*%
D35*
%TO.C,R100*%
X154210000Y-74930000D03*
X154210000Y-73910000D03*
%TD*%
D60*
%TO.C,R128*%
X161981250Y-115537500D03*
X161981250Y-117362500D03*
%TD*%
D69*
%TO.C,D1*%
X153600000Y-79200000D03*
X158400000Y-79200000D03*
%TD*%
D59*
%TO.C,R64*%
X157012500Y-88180000D03*
X155187500Y-88180000D03*
%TD*%
D21*
%TO.C,R139*%
X155995000Y-177385000D03*
X154975000Y-177385000D03*
%TD*%
D67*
%TO.C,R122*%
X158001250Y-129555000D03*
X158001250Y-127730000D03*
%TD*%
D33*
%TO.C,C32*%
X117273750Y-134256250D03*
X117273750Y-135216250D03*
%TD*%
D10*
%TO.C,R77*%
X175870000Y-83335907D03*
X175870000Y-81685907D03*
%TD*%
D25*
%TO.C,R84*%
X196030000Y-93875907D03*
X194380000Y-93875907D03*
%TD*%
D48*
%TO.C,C5*%
X89425000Y-176337500D03*
X89425000Y-178062500D03*
%TD*%
D39*
%TO.C,C91*%
X195055000Y-134810000D03*
X194095000Y-134810000D03*
%TD*%
D21*
%TO.C,R44*%
X138060000Y-109100000D03*
X137040000Y-109100000D03*
%TD*%
D37*
%TO.C,Css1*%
X87650000Y-173175000D03*
X89550000Y-173175000D03*
%TD*%
D70*
%TO.C,C1*%
X72100000Y-86675000D03*
X75050000Y-86675000D03*
%TD*%
D19*
%TO.C,R35*%
X119533750Y-134246250D03*
X119533750Y-135266250D03*
%TD*%
D10*
%TO.C,R117*%
X212525000Y-142720000D03*
X212525000Y-141070000D03*
%TD*%
D71*
%TO.C,IC1*%
X80497500Y-101162500D03*
X80497500Y-100212500D03*
X80497500Y-99262500D03*
X78222500Y-99262500D03*
X78222500Y-100212500D03*
X78222500Y-101162500D03*
%TD*%
D11*
%TO.C,R10*%
X73200000Y-68900000D03*
X74850000Y-68900000D03*
%TD*%
D28*
%TO.C,PE_15*%
X222600000Y-87240000D03*
D29*
X221300000Y-87240000D03*
%TD*%
D35*
%TO.C,R144*%
X87170000Y-132470000D03*
X87170000Y-131450000D03*
%TD*%
D10*
%TO.C,R14*%
X85575000Y-165950000D03*
X85575000Y-164300000D03*
%TD*%
D11*
%TO.C,R162*%
X194602499Y-121122500D03*
X196252499Y-121122500D03*
%TD*%
D35*
%TO.C,R165*%
X211692499Y-121152500D03*
X211692499Y-120132500D03*
%TD*%
D34*
%TO.C,R169*%
X81750000Y-135510000D03*
X82770000Y-135510000D03*
%TD*%
D50*
%TO.C,C94*%
X190975000Y-138170000D03*
X189075000Y-138170000D03*
%TD*%
D38*
%TO.C,C54*%
X179130000Y-77670907D03*
X179130000Y-79570907D03*
%TD*%
D26*
%TO.C,C61*%
X134030000Y-99170000D03*
X135580000Y-99170000D03*
%TD*%
D72*
%TO.C,Q9*%
X63550000Y-86185000D03*
X63550000Y-84915000D03*
X63550000Y-83645000D03*
X63550000Y-82375000D03*
X58400000Y-82375000D03*
X58400000Y-83645000D03*
X58400000Y-84915000D03*
X58400000Y-86185000D03*
%TD*%
D24*
%TO.C,C4*%
X87025000Y-179125000D03*
X85475000Y-179125000D03*
%TD*%
D23*
%TO.C,R129*%
X161991250Y-119972500D03*
X161991250Y-121622500D03*
%TD*%
D63*
%TO.C,J2*%
X240270000Y-150040000D03*
X245310000Y-150040000D03*
X240270000Y-147500000D03*
X245310000Y-147500000D03*
X240270000Y-144960000D03*
X245310000Y-144960000D03*
X240270000Y-142420000D03*
X245310000Y-142420000D03*
X240270000Y-139880000D03*
X245310000Y-139880000D03*
X240270000Y-137340000D03*
X245310000Y-137340000D03*
X240270000Y-134800000D03*
X245310000Y-134800000D03*
X240270000Y-132260000D03*
X245310000Y-132260000D03*
X240270000Y-129720000D03*
X245310000Y-129720000D03*
X240270000Y-127180000D03*
X245310000Y-127180000D03*
%TD*%
D21*
%TO.C,R131*%
X138217500Y-183385000D03*
X137197500Y-183385000D03*
%TD*%
D73*
%TO.C,H2*%
X62020000Y-70330000D03*
%TD*%
D43*
%TO.C,PI_IN1*%
X171195000Y-60495000D03*
D51*
X171195000Y-57955000D03*
X173735000Y-60495000D03*
X173735000Y-57955000D03*
X176275000Y-60495000D03*
X176275000Y-57955000D03*
X178815000Y-60495000D03*
X178815000Y-57955000D03*
X181355000Y-60495000D03*
X181355000Y-57955000D03*
%TD*%
D25*
%TO.C,R49*%
X135630000Y-71290000D03*
X133980000Y-71290000D03*
%TD*%
D52*
%TO.C,R43*%
X112067500Y-98200000D03*
X113892500Y-98200000D03*
%TD*%
D11*
%TO.C,R94*%
X210525000Y-90745907D03*
X212175000Y-90745907D03*
%TD*%
D69*
%TO.C,D8*%
X172620000Y-187860000D03*
X177420000Y-187860000D03*
%TD*%
D22*
%TO.C,U2*%
X145800000Y-71120000D03*
X145800000Y-72390000D03*
X145800000Y-73660000D03*
X145800000Y-74930000D03*
X150750000Y-74930000D03*
X150750000Y-73660000D03*
X150750000Y-72390000D03*
X150750000Y-71120000D03*
%TD*%
D39*
%TO.C,C103*%
X78409448Y-138560000D03*
X77449448Y-138560000D03*
%TD*%
D25*
%TO.C,R18*%
X91150000Y-182475000D03*
X89500000Y-182475000D03*
%TD*%
D19*
%TO.C,R134*%
X165011250Y-122252500D03*
X165011250Y-123272500D03*
%TD*%
D24*
%TO.C,C29*%
X143360000Y-132320000D03*
X141810000Y-132320000D03*
%TD*%
D11*
%TO.C,R51*%
X131180000Y-76840000D03*
X132830000Y-76840000D03*
%TD*%
D39*
%TO.C,C80*%
X149101250Y-107792500D03*
X148141250Y-107792500D03*
%TD*%
D27*
%TO.C,C104*%
X139765000Y-146027500D03*
X139765000Y-145067500D03*
%TD*%
D34*
%TO.C,R87*%
X194330000Y-88915907D03*
X195350000Y-88915907D03*
%TD*%
D40*
%TO.C,JP4*%
X183492499Y-117832500D03*
D41*
X183492499Y-116532500D03*
D42*
X183492499Y-115232500D03*
%TD*%
D10*
%TO.C,R166*%
X211682499Y-117292500D03*
X211682499Y-115642500D03*
%TD*%
D39*
%TO.C,C79*%
X149101250Y-109502500D03*
X148141250Y-109502500D03*
%TD*%
D48*
%TO.C,C33*%
X122043750Y-134613750D03*
X122043750Y-136338750D03*
%TD*%
D74*
%TO.C,12_V_PWR2*%
X60975000Y-123680000D03*
D75*
X60975000Y-126220000D03*
%TD*%
D25*
%TO.C,R112*%
X191080000Y-131630000D03*
X189430000Y-131630000D03*
%TD*%
D76*
%TO.C,D2*%
X208910000Y-81485907D03*
X204110000Y-81485907D03*
%TD*%
D73*
%TO.C,H1*%
X282070000Y-70310000D03*
%TD*%
D63*
%TO.C,J4*%
X240270000Y-122730000D03*
X245310000Y-122730000D03*
X240270000Y-120190000D03*
X245310000Y-120190000D03*
X240270000Y-117650000D03*
X245310000Y-117650000D03*
X240270000Y-115110000D03*
X245310000Y-115110000D03*
X240270000Y-112570000D03*
X245310000Y-112570000D03*
X240270000Y-110030000D03*
X245310000Y-110030000D03*
X240270000Y-107490000D03*
X245310000Y-107490000D03*
X240270000Y-104950000D03*
X245310000Y-104950000D03*
X240270000Y-102410000D03*
X245310000Y-102410000D03*
X240270000Y-99870000D03*
X245310000Y-99870000D03*
X240270000Y-97330000D03*
X245310000Y-97330000D03*
X240270000Y-94790000D03*
X245310000Y-94790000D03*
X240270000Y-92250000D03*
X245310000Y-92250000D03*
X240270000Y-89710000D03*
X245310000Y-89710000D03*
X240270000Y-87170000D03*
X245310000Y-87170000D03*
X240270000Y-84630000D03*
X245310000Y-84630000D03*
X240270000Y-82090000D03*
X245310000Y-82090000D03*
%TD*%
D25*
%TO.C,R27*%
X139340000Y-132350000D03*
X137690000Y-132350000D03*
%TD*%
D18*
%TO.C,C53*%
X182580000Y-99575907D03*
X182580000Y-97675907D03*
%TD*%
D21*
%TO.C,R98*%
X208920000Y-72405907D03*
X207900000Y-72405907D03*
%TD*%
D23*
%TO.C,R83*%
X175710000Y-94895907D03*
X175710000Y-96545907D03*
%TD*%
D77*
%TO.C,C64*%
X147800000Y-78077500D03*
X147800000Y-79212500D03*
%TD*%
D37*
%TO.C,C30*%
X111435000Y-133100000D03*
X113335000Y-133100000D03*
%TD*%
D26*
%TO.C,C83*%
X147041250Y-118122500D03*
X148591250Y-118122500D03*
%TD*%
D43*
%TO.C,TP_9*%
X162700000Y-139060000D03*
%TD*%
D56*
%TO.C,Q2*%
X145795000Y-180010000D03*
X145795000Y-181910000D03*
X147670000Y-180960000D03*
%TD*%
D43*
%TO.C,TP_5*%
X132070000Y-120770000D03*
%TD*%
D35*
%TO.C,R152*%
X60900000Y-79920000D03*
X60900000Y-78900000D03*
%TD*%
D28*
%TO.C,PF_15*%
X222600000Y-110040000D03*
D29*
X221300000Y-110040000D03*
%TD*%
D34*
%TO.C,R103*%
X194360000Y-96555907D03*
X195380000Y-96555907D03*
%TD*%
D78*
%TO.C,IC11*%
X219985000Y-72660000D03*
X219985000Y-73160000D03*
X219985000Y-73660000D03*
X219985000Y-74160000D03*
X219985000Y-74660000D03*
X224385000Y-74660000D03*
X224385000Y-74160000D03*
X224385000Y-73660000D03*
X224385000Y-73160000D03*
X224385000Y-72660000D03*
%TD*%
D52*
%TO.C,R124*%
X158678750Y-131562500D03*
X160503750Y-131562500D03*
%TD*%
D43*
%TO.C,TP_1*%
X79290000Y-113510000D03*
%TD*%
D15*
%TO.C,C85*%
X153541250Y-131567500D03*
X153541250Y-130017500D03*
%TD*%
%TO.C,C113*%
X208972499Y-121152500D03*
X208972499Y-119602500D03*
%TD*%
D35*
%TO.C,R40*%
X156940000Y-56960000D03*
X156940000Y-55940000D03*
%TD*%
D52*
%TO.C,R2*%
X80375000Y-89910000D03*
X82200000Y-89910000D03*
%TD*%
D21*
%TO.C,R12*%
X83150000Y-79075000D03*
X82130000Y-79075000D03*
%TD*%
D20*
%TO.C,RV9*%
X157575000Y-160487500D03*
X155035000Y-160487500D03*
X152495000Y-160487500D03*
%TD*%
D79*
%TO.C,3.3_V_PWR1*%
X110970000Y-193710000D03*
D13*
X108430000Y-193710000D03*
%TD*%
D35*
%TO.C,R135*%
X160815000Y-144067500D03*
X160815000Y-143047500D03*
%TD*%
D80*
%TO.C,C6*%
X79900000Y-72475000D03*
X76775000Y-72475000D03*
%TD*%
D34*
%TO.C,R3*%
X75120000Y-97040000D03*
X76140000Y-97040000D03*
%TD*%
D25*
%TO.C,R58*%
X132630000Y-93690000D03*
X130980000Y-93690000D03*
%TD*%
D73*
%TO.C,H3*%
X62020000Y-180290000D03*
%TD*%
D43*
%TO.C,TP_10*%
X133380000Y-146310000D03*
%TD*%
D21*
%TO.C,R127*%
X142690000Y-177385000D03*
X141670000Y-177385000D03*
%TD*%
D60*
%TO.C,R48*%
X135570000Y-83047500D03*
X135570000Y-84872500D03*
%TD*%
D21*
%TO.C,R5*%
X80525000Y-79075000D03*
X79505000Y-79075000D03*
%TD*%
D23*
%TO.C,R76*%
X175870000Y-77575907D03*
X175870000Y-79225907D03*
%TD*%
D39*
%TO.C,C49*%
X126690000Y-112640000D03*
X125730000Y-112640000D03*
%TD*%
D18*
%TO.C,C96*%
X209305000Y-142720000D03*
X209305000Y-140820000D03*
%TD*%
D19*
%TO.C,R148*%
X137335000Y-151987500D03*
X137335000Y-153007500D03*
%TD*%
D21*
%TO.C,R80*%
X182590000Y-89525907D03*
X181570000Y-89525907D03*
%TD*%
D20*
%TO.C,RV10*%
X141225000Y-160487500D03*
X143765000Y-160487500D03*
X146305000Y-160487500D03*
%TD*%
D30*
%TO.C,C9*%
X102750000Y-88200000D03*
X102750000Y-91150000D03*
%TD*%
D59*
%TO.C,R78*%
X180740000Y-82445907D03*
X178915000Y-82445907D03*
%TD*%
D20*
%TO.C,RV4*%
X109730000Y-115770000D03*
X107190000Y-115770000D03*
X104650000Y-115770000D03*
%TD*%
D39*
%TO.C,C40*%
X141377500Y-61052500D03*
X140417500Y-61052500D03*
%TD*%
D67*
%TO.C,R53*%
X146940000Y-99375000D03*
X146940000Y-97550000D03*
%TD*%
D60*
%TO.C,R107*%
X144521250Y-112165000D03*
X144521250Y-113990000D03*
%TD*%
D56*
%TO.C,Q5*%
X154445000Y-180010000D03*
X154445000Y-181910000D03*
X156320000Y-180960000D03*
%TD*%
D20*
%TO.C,RV2*%
X92710000Y-96770000D03*
X90170000Y-99310000D03*
X87630000Y-96770000D03*
%TD*%
D81*
%TO.C,Q7*%
X85270000Y-128140000D03*
X87170000Y-128140000D03*
X86220000Y-126265000D03*
%TD*%
D37*
%TO.C,C51*%
X118557500Y-117240000D03*
X120457500Y-117240000D03*
%TD*%
D38*
%TO.C,C52*%
X117060000Y-98220000D03*
X117060000Y-100120000D03*
%TD*%
D33*
%TO.C,C12*%
X120300000Y-149760000D03*
X120300000Y-150720000D03*
%TD*%
D10*
%TO.C,R114*%
X147201250Y-127442500D03*
X147201250Y-125792500D03*
%TD*%
D40*
%TO.C,JP11*%
X183625000Y-139490000D03*
D41*
X183625000Y-138190000D03*
D42*
X183625000Y-136890000D03*
%TD*%
D40*
%TO.C,JP10*%
X183515000Y-130990000D03*
D41*
X183515000Y-129690000D03*
D42*
X183515000Y-128390000D03*
%TD*%
D23*
%TO.C,R69*%
X150470000Y-78210000D03*
X150470000Y-79860000D03*
%TD*%
D17*
%TO.C,C88*%
X165016250Y-112572500D03*
X165976250Y-112572500D03*
%TD*%
D33*
%TO.C,C13*%
X105200000Y-149760000D03*
X105200000Y-150720000D03*
%TD*%
D82*
%TO.C,JP7*%
X208472499Y-109700000D03*
D83*
X209772499Y-109700000D03*
D84*
X211072499Y-109700000D03*
%TD*%
D82*
%TO.C,JP9*%
X208670000Y-150640000D03*
D83*
X209970000Y-150640000D03*
D84*
X211270000Y-150640000D03*
%TD*%
D20*
%TO.C,RV1*%
X87610000Y-90090000D03*
X90150000Y-87550000D03*
X92690000Y-90090000D03*
%TD*%
D39*
%TO.C,C45*%
X86290000Y-116671471D03*
X85330000Y-116671471D03*
%TD*%
D30*
%TO.C,C8*%
X98900000Y-88200000D03*
X98900000Y-91150000D03*
%TD*%
D59*
%TO.C,R109*%
X148688750Y-115132500D03*
X146863750Y-115132500D03*
%TD*%
D10*
%TO.C,R176*%
X214820000Y-160830000D03*
X214820000Y-159180000D03*
%TD*%
D21*
%TO.C,R8*%
X85875000Y-79075000D03*
X84855000Y-79075000D03*
%TD*%
D25*
%TO.C,R74*%
X178945000Y-72055907D03*
X177295000Y-72055907D03*
%TD*%
D43*
%TO.C,TP_6*%
X138040000Y-120770000D03*
%TD*%
D36*
%TO.C,C58*%
X135580000Y-78975000D03*
X135580000Y-80525000D03*
%TD*%
D52*
%TO.C,R23*%
X118595000Y-107850000D03*
X120420000Y-107850000D03*
%TD*%
D38*
%TO.C,C101*%
X91400000Y-138920000D03*
X91400000Y-140820000D03*
%TD*%
D39*
%TO.C,C108*%
X195062499Y-113392500D03*
X194102499Y-113392500D03*
%TD*%
D38*
%TO.C,C65*%
X182590000Y-84975907D03*
X182590000Y-86875907D03*
%TD*%
D11*
%TO.C,R85*%
X185320000Y-94625907D03*
X186970000Y-94625907D03*
%TD*%
D34*
%TO.C,R140*%
X81560000Y-137800000D03*
X82580000Y-137800000D03*
%TD*%
D20*
%TO.C,RV3*%
X92740000Y-107000000D03*
X90200000Y-107000000D03*
X87660000Y-107000000D03*
%TD*%
D50*
%TO.C,C25*%
X143520000Y-135220000D03*
X141620000Y-135220000D03*
%TD*%
D64*
%TO.C,D7*%
X165515000Y-174565000D03*
X165515000Y-169765000D03*
%TD*%
D27*
%TO.C,C37*%
X159765000Y-56910000D03*
X159765000Y-55950000D03*
%TD*%
D85*
%TO.C,IC7*%
X148450000Y-62617500D03*
X148450000Y-61967500D03*
X148450000Y-61317500D03*
X148450000Y-60667500D03*
X144225000Y-60667500D03*
X144225000Y-61317500D03*
X144225000Y-61967500D03*
X144225000Y-62617500D03*
%TD*%
D25*
%TO.C,R81*%
X182915000Y-94845907D03*
X181265000Y-94845907D03*
%TD*%
D43*
%TO.C,TP_3*%
X79260000Y-118820000D03*
%TD*%
%TO.C,TP_8*%
X126475000Y-90900000D03*
%TD*%
D56*
%TO.C,Q4*%
X141245000Y-180010000D03*
X141245000Y-181910000D03*
X143120000Y-180960000D03*
%TD*%
D23*
%TO.C,R67*%
X159780000Y-85240000D03*
X159780000Y-86890000D03*
%TD*%
D38*
%TO.C,C15*%
X203610000Y-88845907D03*
X203610000Y-90745907D03*
%TD*%
D19*
%TO.C,R20*%
X114650000Y-149750000D03*
X114650000Y-150770000D03*
%TD*%
D23*
%TO.C,R59*%
X138700000Y-97535000D03*
X138700000Y-99185000D03*
%TD*%
D86*
%TO.C,C70*%
X189137500Y-79835907D03*
X188002500Y-79835907D03*
%TD*%
D22*
%TO.C,U8*%
X198182499Y-110562500D03*
X198182499Y-111832500D03*
X198182499Y-113102500D03*
X198182499Y-114372500D03*
X198182499Y-115642500D03*
X198182499Y-116912500D03*
X198182499Y-118182500D03*
X203132499Y-118182500D03*
X203132499Y-116912500D03*
X203132499Y-115642500D03*
X203132499Y-114372500D03*
X203132499Y-113102500D03*
X203132499Y-111832500D03*
X203132499Y-110562500D03*
%TD*%
D11*
%TO.C,R68*%
X155205000Y-90490000D03*
X156855000Y-90490000D03*
%TD*%
D87*
%TO.C,IC10*%
X141625000Y-154007500D03*
X142895000Y-154007500D03*
X144165000Y-154007500D03*
X145435000Y-154007500D03*
X145435000Y-149057500D03*
X144165000Y-149057500D03*
X142895000Y-149057500D03*
X141625000Y-149057500D03*
%TD*%
D70*
%TO.C,C3*%
X72100000Y-93900000D03*
X75050000Y-93900000D03*
%TD*%
D12*
%TO.C,5_V_PWR1*%
X128580000Y-59770000D03*
D13*
X131120000Y-59770000D03*
%TD*%
D35*
%TO.C,R123*%
X160781250Y-129192500D03*
X160781250Y-128172500D03*
%TD*%
D27*
%TO.C,C105*%
X141925000Y-146017500D03*
X141925000Y-145057500D03*
%TD*%
D11*
%TO.C,R57*%
X133980000Y-90670000D03*
X135630000Y-90670000D03*
%TD*%
D35*
%TO.C,R108*%
X144521250Y-117322500D03*
X144521250Y-116302500D03*
%TD*%
D21*
%TO.C,R30*%
X135430000Y-126826250D03*
X134410000Y-126826250D03*
%TD*%
D43*
%TO.C,Accelerometer1*%
X201395000Y-57945000D03*
D51*
X201395000Y-60485000D03*
X198855000Y-57945000D03*
X198855000Y-60485000D03*
X196315000Y-57945000D03*
X196315000Y-60485000D03*
X193775000Y-57945000D03*
X193775000Y-60485000D03*
X191235000Y-57945000D03*
X191235000Y-60485000D03*
%TD*%
D21*
%TO.C,R120*%
X151615000Y-177385000D03*
X150595000Y-177385000D03*
%TD*%
D11*
%TO.C,R174*%
X199215000Y-162580000D03*
X200865000Y-162580000D03*
%TD*%
D10*
%TO.C,R130*%
X146320000Y-186635000D03*
X146320000Y-184985000D03*
%TD*%
D34*
%TO.C,R1*%
X71695000Y-97025000D03*
X72715000Y-97025000D03*
%TD*%
D39*
%TO.C,C115*%
X191180000Y-149570000D03*
X190220000Y-149570000D03*
%TD*%
D33*
%TO.C,C90*%
X156930000Y-152107500D03*
X156930000Y-153067500D03*
%TD*%
D18*
%TO.C,C16*%
X206830000Y-87835907D03*
X206830000Y-85935907D03*
%TD*%
D19*
%TO.C,R29*%
X131300000Y-137750000D03*
X131300000Y-138770000D03*
%TD*%
D43*
%TO.C,TP_7*%
X150025000Y-147117500D03*
%TD*%
%TO.C,TC_3_4*%
X233660000Y-60510000D03*
D51*
X233660000Y-57970000D03*
X236200000Y-60510000D03*
X236200000Y-57970000D03*
X238740000Y-60510000D03*
X238740000Y-57970000D03*
X241280000Y-60510000D03*
X241280000Y-57970000D03*
X243820000Y-60510000D03*
X243820000Y-57970000D03*
X246360000Y-60510000D03*
X246360000Y-57970000D03*
X248900000Y-60510000D03*
X248900000Y-57970000D03*
%TD*%
D30*
%TO.C,C19*%
X124650000Y-184900000D03*
X124650000Y-187850000D03*
%TD*%
D11*
%TO.C,R137*%
X153545000Y-170360000D03*
X155195000Y-170360000D03*
%TD*%
%TO.C,R164*%
X90030000Y-136370000D03*
X91680000Y-136370000D03*
%TD*%
D26*
%TO.C,C82*%
X147001250Y-112162500D03*
X148551250Y-112162500D03*
%TD*%
D73*
%TO.C,H4*%
X282070000Y-180280000D03*
%TD*%
D17*
%TO.C,C98*%
X150285000Y-170360000D03*
X151245000Y-170360000D03*
%TD*%
D25*
%TO.C,R19*%
X87375000Y-182475000D03*
X85725000Y-182475000D03*
%TD*%
%TO.C,R31*%
X135580000Y-132340000D03*
X133930000Y-132340000D03*
%TD*%
D24*
%TO.C,C36*%
X164995000Y-61957500D03*
X163445000Y-61957500D03*
%TD*%
D43*
%TO.C,LCD_BTNs1*%
X256120000Y-192130000D03*
D51*
X256120000Y-194670000D03*
X253580000Y-192130000D03*
X253580000Y-194670000D03*
X251040000Y-192130000D03*
X251040000Y-194670000D03*
X248500000Y-192130000D03*
X248500000Y-194670000D03*
X245960000Y-192130000D03*
X245960000Y-194670000D03*
X243420000Y-192130000D03*
X243420000Y-194670000D03*
X240880000Y-192130000D03*
X240880000Y-194670000D03*
X238340000Y-192130000D03*
X238340000Y-194670000D03*
%TD*%
D19*
%TO.C,R70*%
X145310000Y-77985000D03*
X145310000Y-79005000D03*
%TD*%
D21*
%TO.C,R41*%
X146847500Y-54890000D03*
X145827500Y-54890000D03*
%TD*%
D64*
%TO.C,D5*%
X90110000Y-150840000D03*
X90110000Y-146040000D03*
%TD*%
D25*
%TO.C,R170*%
X190950000Y-151410000D03*
X189300000Y-151410000D03*
%TD*%
D33*
%TO.C,C26*%
X133720000Y-137780000D03*
X133720000Y-138740000D03*
%TD*%
D38*
%TO.C,C11*%
X117525000Y-150080000D03*
X117525000Y-151980000D03*
%TD*%
D26*
%TO.C,C87*%
X158946250Y-124147500D03*
X160496250Y-124147500D03*
%TD*%
D22*
%TO.C,U6*%
X198640000Y-131980000D03*
X198640000Y-133250000D03*
X198640000Y-134520000D03*
X198640000Y-135790000D03*
X198640000Y-137060000D03*
X198640000Y-138330000D03*
X198640000Y-139600000D03*
X203590000Y-139600000D03*
X203590000Y-138330000D03*
X203590000Y-137060000D03*
X203590000Y-135790000D03*
X203590000Y-134520000D03*
X203590000Y-133250000D03*
X203590000Y-131980000D03*
%TD*%
D39*
%TO.C,C92*%
X195055000Y-136770000D03*
X194095000Y-136770000D03*
%TD*%
D40*
%TO.C,JP3*%
X182707500Y-109652500D03*
D41*
X182707500Y-108352500D03*
D42*
X182707500Y-107052500D03*
%TD*%
D82*
%TO.C,JP12*%
X209495000Y-131140000D03*
D83*
X210795000Y-131140000D03*
D84*
X212095000Y-131140000D03*
%TD*%
D35*
%TO.C,R73*%
X142850000Y-79005000D03*
X142850000Y-77985000D03*
%TD*%
D60*
%TO.C,R54*%
X144030000Y-97550000D03*
X144030000Y-99375000D03*
%TD*%
D39*
%TO.C,C110*%
X191062499Y-108362500D03*
X190102499Y-108362500D03*
%TD*%
D21*
%TO.C,R126*%
X147215000Y-177385000D03*
X146195000Y-177385000D03*
%TD*%
D39*
%TO.C,C48*%
X126690000Y-110590000D03*
X125730000Y-110590000D03*
%TD*%
D56*
%TO.C,Q6*%
X158845000Y-180010000D03*
X158845000Y-181910000D03*
X160720000Y-180960000D03*
%TD*%
D23*
%TO.C,R106*%
X144521250Y-108117500D03*
X144521250Y-109767500D03*
%TD*%
D22*
%TO.C,U7*%
X198550000Y-152020000D03*
X198550000Y-153290000D03*
X198550000Y-154560000D03*
X198550000Y-155830000D03*
X198550000Y-157100000D03*
X198550000Y-158370000D03*
X198550000Y-159640000D03*
X203500000Y-159640000D03*
X203500000Y-158370000D03*
X203500000Y-157100000D03*
X203500000Y-155830000D03*
X203500000Y-154560000D03*
X203500000Y-153290000D03*
X203500000Y-152020000D03*
%TD*%
D11*
%TO.C,R163*%
X198897499Y-121122500D03*
X200547499Y-121122500D03*
%TD*%
D21*
%TO.C,R99*%
X205990000Y-72395907D03*
X204970000Y-72395907D03*
%TD*%
D39*
%TO.C,C66*%
X195390000Y-154830000D03*
X194430000Y-154830000D03*
%TD*%
D81*
%TO.C,Q8*%
X80010000Y-128140000D03*
X81910000Y-128140000D03*
X80960000Y-126265000D03*
%TD*%
D10*
%TO.C,R145*%
X151995000Y-186685000D03*
X151995000Y-185035000D03*
%TD*%
D21*
%TO.C,R45*%
X138050000Y-107050000D03*
X137030000Y-107050000D03*
%TD*%
D11*
%TO.C,R160*%
X189192499Y-112232500D03*
X190842499Y-112232500D03*
%TD*%
D30*
%TO.C,C10*%
X106625000Y-88200000D03*
X106625000Y-91150000D03*
%TD*%
D33*
%TO.C,C106*%
X219025000Y-76990000D03*
X219025000Y-77950000D03*
%TD*%
D34*
%TO.C,R119*%
X153756250Y-127457500D03*
X154776250Y-127457500D03*
%TD*%
D25*
%TO.C,R97*%
X208910000Y-75005907D03*
X207260000Y-75005907D03*
%TD*%
D19*
%TO.C,R147*%
X137310000Y-148137500D03*
X137310000Y-149157500D03*
%TD*%
D11*
%TO.C,R136*%
X134310000Y-172310000D03*
X135960000Y-172310000D03*
%TD*%
D59*
%TO.C,R52*%
X135547500Y-87880000D03*
X133722500Y-87880000D03*
%TD*%
D27*
%TO.C,C42*%
X109100000Y-143190000D03*
X109100000Y-142230000D03*
%TD*%
D38*
%TO.C,C76*%
X200190000Y-88840907D03*
X200190000Y-90740907D03*
%TD*%
D27*
%TO.C,C43*%
X111000000Y-143170000D03*
X111000000Y-142210000D03*
%TD*%
D39*
%TO.C,C46*%
X75710000Y-101682500D03*
X74750000Y-101682500D03*
%TD*%
D15*
%TO.C,C118*%
X209260000Y-162580000D03*
X209260000Y-161030000D03*
%TD*%
D21*
%TO.C,R90*%
X199890000Y-99285907D03*
X198870000Y-99285907D03*
%TD*%
D64*
%TO.C,D3*%
X165321250Y-109612500D03*
X165321250Y-104812500D03*
%TD*%
D50*
%TO.C,C50*%
X120457500Y-113880000D03*
X118557500Y-113880000D03*
%TD*%
D53*
%TO.C,IC5*%
X82300000Y-168875000D03*
D54*
X81325000Y-169600000D03*
X81325000Y-170100000D03*
X81325000Y-170600000D03*
X81325000Y-171100000D03*
X81325000Y-171600000D03*
D53*
X82300000Y-172325000D03*
X83800000Y-172325000D03*
D54*
X84775000Y-171600000D03*
X84775000Y-171100000D03*
X84775000Y-170600000D03*
X84775000Y-170100000D03*
X84775000Y-169600000D03*
D53*
X83800000Y-168875000D03*
D55*
X83050000Y-170600000D03*
%TD*%
D34*
%TO.C,R21*%
X82405000Y-182475000D03*
X83425000Y-182475000D03*
%TD*%
D86*
%TO.C,C69*%
X189167500Y-77455907D03*
X188032500Y-77455907D03*
%TD*%
D19*
%TO.C,R66*%
X161660000Y-95080000D03*
X161660000Y-96100000D03*
%TD*%
D28*
%TO.C,PE_10*%
X222600000Y-94800000D03*
D29*
X221300000Y-94800000D03*
%TD*%
D19*
%TO.C,R61*%
X161660000Y-98210000D03*
X161660000Y-99230000D03*
%TD*%
D30*
%TO.C,C18*%
X120725000Y-184900000D03*
X120725000Y-187850000D03*
%TD*%
D87*
%TO.C,L3*%
X80705552Y-146304448D03*
X81975552Y-146304448D03*
X83245552Y-146304448D03*
X84515552Y-146304448D03*
X84515552Y-141354448D03*
X83245552Y-141354448D03*
X81975552Y-141354448D03*
X80705552Y-141354448D03*
%TD*%
D25*
%TO.C,R161*%
X190862499Y-114342500D03*
X189212499Y-114342500D03*
%TD*%
D11*
%TO.C,R171*%
X189270000Y-153510000D03*
X190920000Y-153510000D03*
%TD*%
D59*
%TO.C,R24*%
X120420000Y-110760000D03*
X118595000Y-110760000D03*
%TD*%
D39*
%TO.C,C47*%
X75727500Y-99387500D03*
X74767500Y-99387500D03*
%TD*%
D63*
%TO.C,J3*%
X283680000Y-117640000D03*
X288720000Y-117640000D03*
X283680000Y-115100000D03*
X288720000Y-115100000D03*
X283680000Y-112560000D03*
X288720000Y-112560000D03*
X283680000Y-110020000D03*
X288720000Y-110020000D03*
X283680000Y-107480000D03*
X288720000Y-107480000D03*
X283680000Y-104940000D03*
X288720000Y-104940000D03*
X283680000Y-102400000D03*
X288720000Y-102400000D03*
X283680000Y-99860000D03*
X288720000Y-99860000D03*
X283680000Y-97320000D03*
X288720000Y-97320000D03*
X283680000Y-94780000D03*
X288720000Y-94780000D03*
X283680000Y-92240000D03*
X288720000Y-92240000D03*
X283680000Y-89700000D03*
X288720000Y-89700000D03*
X283680000Y-87160000D03*
X288720000Y-87160000D03*
X283680000Y-84620000D03*
X288720000Y-84620000D03*
X283680000Y-82080000D03*
X288720000Y-82080000D03*
%TD*%
D35*
%TO.C,R9*%
X71850000Y-76460000D03*
X71850000Y-75440000D03*
%TD*%
M02*
