%TF.GenerationSoftware,KiCad,Pcbnew,8.0.8*%
%TF.CreationDate,2025-03-14T14:35:35+00:00*%
%TF.ProjectId,Beehive_Monitor_main_PCB,42656568-6976-4655-9f4d-6f6e69746f72,rev?*%
%TF.SameCoordinates,Original*%
%TF.FileFunction,Soldermask,Bot*%
%TF.FilePolarity,Negative*%
%FSLAX46Y46*%
G04 Gerber Fmt 4.6, Leading zero omitted, Abs format (unit mm)*
G04 Created by KiCad (PCBNEW 8.0.8) date 2025-03-14 14:35:35*
%MOMM*%
%LPD*%
G01*
G04 APERTURE LIST*
G04 Aperture macros list*
%AMRoundRect*
0 Rectangle with rounded corners*
0 $1 Rounding radius*
0 $2 $3 $4 $5 $6 $7 $8 $9 X,Y pos of 4 corners*
0 Add a 4 corners polygon primitive as box body*
4,1,4,$2,$3,$4,$5,$6,$7,$8,$9,$2,$3,0*
0 Add four circle primitives for the rounded corners*
1,1,$1+$1,$2,$3*
1,1,$1+$1,$4,$5*
1,1,$1+$1,$6,$7*
1,1,$1+$1,$8,$9*
0 Add four rect primitives between the rounded corners*
20,1,$1+$1,$2,$3,$4,$5,0*
20,1,$1+$1,$4,$5,$6,$7,0*
20,1,$1+$1,$6,$7,$8,$9,0*
20,1,$1+$1,$8,$9,$2,$3,0*%
G04 Aperture macros list end*
%ADD10RoundRect,0.250000X-0.620000X-0.845000X0.620000X-0.845000X0.620000X0.845000X-0.620000X0.845000X0*%
%ADD11O,1.740000X2.190000*%
%ADD12C,1.440000*%
%ADD13R,1.700000X1.700000*%
%ADD14RoundRect,0.250500X-0.499500X-0.499500X0.499500X-0.499500X0.499500X0.499500X-0.499500X0.499500X0*%
%ADD15C,1.500000*%
%ADD16O,1.700000X1.700000*%
%ADD17RoundRect,0.675000X0.675000X-0.675000X0.675000X0.675000X-0.675000X0.675000X-0.675000X-0.675000X0*%
%ADD18C,2.700000*%
%ADD19C,2.200000*%
%ADD20RoundRect,0.250000X-0.845000X0.620000X-0.845000X-0.620000X0.845000X-0.620000X0.845000X0.620000X0*%
%ADD21O,2.190000X1.740000*%
%ADD22RoundRect,0.250000X0.620000X0.845000X-0.620000X0.845000X-0.620000X-0.845000X0.620000X-0.845000X0*%
G04 APERTURE END LIST*
D10*
%TO.C,PI_PWR1*%
X118300000Y-59770000D03*
D11*
X120840000Y-59770000D03*
%TD*%
D12*
%TO.C,RV7*%
X120665000Y-90760000D03*
X118125000Y-90760000D03*
X115585000Y-90760000D03*
%TD*%
D13*
%TO.C,TP_4*%
X119620000Y-104200000D03*
%TD*%
%TO.C,TP_2*%
X79300000Y-108480000D03*
%TD*%
D14*
%TO.C,K2*%
X172530000Y-170365000D03*
D15*
X172530000Y-175445000D03*
X172530000Y-177985000D03*
X172530000Y-180525000D03*
X172530000Y-183065000D03*
X177610000Y-183065000D03*
X177610000Y-180525000D03*
X177610000Y-177985000D03*
X177610000Y-175445000D03*
X177610000Y-170365000D03*
%TD*%
D12*
%TO.C,RV5*%
X109730000Y-125130000D03*
X107190000Y-125130000D03*
X104650000Y-125130000D03*
%TD*%
D13*
%TO.C,TC_1_2*%
X209900000Y-60495000D03*
D16*
X209900000Y-57955000D03*
X212440000Y-60495000D03*
X212440000Y-57955000D03*
X214980000Y-60495000D03*
X214980000Y-57955000D03*
X217520000Y-60495000D03*
X217520000Y-57955000D03*
X220060000Y-60495000D03*
X220060000Y-57955000D03*
X222600000Y-60495000D03*
X222600000Y-57955000D03*
X225140000Y-60495000D03*
X225140000Y-57955000D03*
%TD*%
D12*
%TO.C,RV11*%
X168710000Y-160487500D03*
X166170000Y-160487500D03*
X163630000Y-160487500D03*
%TD*%
D13*
%TO.C,LEDs1*%
X150890000Y-192125000D03*
D16*
X150890000Y-194665000D03*
X148350000Y-192125000D03*
X148350000Y-194665000D03*
X145810000Y-192125000D03*
X145810000Y-194665000D03*
X143270000Y-192125000D03*
X143270000Y-194665000D03*
X140730000Y-192125000D03*
X140730000Y-194665000D03*
%TD*%
D10*
%TO.C,mic_1_LDR1*%
X188360000Y-188360000D03*
D11*
X190900000Y-188360000D03*
X193440000Y-188360000D03*
X195980000Y-188360000D03*
%TD*%
D10*
%TO.C,mic_2*%
X204230000Y-188360000D03*
D11*
X206770000Y-188360000D03*
%TD*%
D12*
%TO.C,RV6*%
X109730000Y-106250000D03*
X107190000Y-106250000D03*
X104650000Y-106250000D03*
%TD*%
D17*
%TO.C,F1*%
X61000000Y-115825000D03*
X61000000Y-109065000D03*
D18*
X61000000Y-99475000D03*
X61000000Y-92715000D03*
%TD*%
D12*
%TO.C,RV8*%
X167585000Y-150077500D03*
X167585000Y-147537500D03*
X167585000Y-144997500D03*
%TD*%
D19*
%TO.C,H2*%
X62020000Y-70330000D03*
%TD*%
D13*
%TO.C,PI_IN1*%
X171195000Y-60495000D03*
D16*
X171195000Y-57955000D03*
X173735000Y-60495000D03*
X173735000Y-57955000D03*
X176275000Y-60495000D03*
X176275000Y-57955000D03*
X178815000Y-60495000D03*
X178815000Y-57955000D03*
X181355000Y-60495000D03*
X181355000Y-57955000D03*
%TD*%
D20*
%TO.C,12_V_PWR2*%
X60975000Y-123680000D03*
D21*
X60975000Y-126220000D03*
%TD*%
D19*
%TO.C,H1*%
X282070000Y-70310000D03*
%TD*%
D13*
%TO.C,TP_9*%
X162700000Y-139060000D03*
%TD*%
%TO.C,TP_5*%
X132070000Y-120770000D03*
%TD*%
%TO.C,TP_1*%
X79290000Y-113510000D03*
%TD*%
D12*
%TO.C,RV9*%
X157575000Y-160487500D03*
X155035000Y-160487500D03*
X152495000Y-160487500D03*
%TD*%
D22*
%TO.C,3.3_V_PWR1*%
X110970000Y-193710000D03*
D11*
X108430000Y-193710000D03*
%TD*%
D19*
%TO.C,H3*%
X62020000Y-180290000D03*
%TD*%
D13*
%TO.C,TP_10*%
X133380000Y-146310000D03*
%TD*%
D12*
%TO.C,RV10*%
X141225000Y-160487500D03*
X143765000Y-160487500D03*
X146305000Y-160487500D03*
%TD*%
%TO.C,RV4*%
X109730000Y-115770000D03*
X107190000Y-115770000D03*
X104650000Y-115770000D03*
%TD*%
%TO.C,RV2*%
X92710000Y-96770000D03*
X90170000Y-99310000D03*
X87630000Y-96770000D03*
%TD*%
%TO.C,RV1*%
X87610000Y-90090000D03*
X90150000Y-87550000D03*
X92690000Y-90090000D03*
%TD*%
D13*
%TO.C,TP_6*%
X138040000Y-120770000D03*
%TD*%
D12*
%TO.C,RV3*%
X92740000Y-107000000D03*
X90200000Y-107000000D03*
X87660000Y-107000000D03*
%TD*%
D13*
%TO.C,TP_3*%
X79260000Y-118820000D03*
%TD*%
%TO.C,TP_8*%
X126475000Y-90900000D03*
%TD*%
D10*
%TO.C,5_V_PWR1*%
X128580000Y-59770000D03*
D11*
X131120000Y-59770000D03*
%TD*%
D13*
%TO.C,Accelerometer1*%
X201395000Y-57945000D03*
D16*
X201395000Y-60485000D03*
X198855000Y-57945000D03*
X198855000Y-60485000D03*
X196315000Y-57945000D03*
X196315000Y-60485000D03*
X193775000Y-57945000D03*
X193775000Y-60485000D03*
X191235000Y-57945000D03*
X191235000Y-60485000D03*
%TD*%
D13*
%TO.C,TP_7*%
X150025000Y-147117500D03*
%TD*%
%TO.C,TC_3_4*%
X233660000Y-60510000D03*
D16*
X233660000Y-57970000D03*
X236200000Y-60510000D03*
X236200000Y-57970000D03*
X238740000Y-60510000D03*
X238740000Y-57970000D03*
X241280000Y-60510000D03*
X241280000Y-57970000D03*
X243820000Y-60510000D03*
X243820000Y-57970000D03*
X246360000Y-60510000D03*
X246360000Y-57970000D03*
X248900000Y-60510000D03*
X248900000Y-57970000D03*
%TD*%
D19*
%TO.C,H4*%
X282070000Y-180280000D03*
%TD*%
D13*
%TO.C,LCD_BTNs1*%
X256120000Y-192130000D03*
D16*
X256120000Y-194670000D03*
X253580000Y-192130000D03*
X253580000Y-194670000D03*
X251040000Y-192130000D03*
X251040000Y-194670000D03*
X248500000Y-192130000D03*
X248500000Y-194670000D03*
X245960000Y-192130000D03*
X245960000Y-194670000D03*
X243420000Y-192130000D03*
X243420000Y-194670000D03*
X240880000Y-192130000D03*
X240880000Y-194670000D03*
X238340000Y-192130000D03*
X238340000Y-194670000D03*
%TD*%
M02*
