M48
; DRILL file {KiCad 8.0.8} date 2025-03-14T14:35:32+0000
; FORMAT={-:-/ absolute / inch / decimal}
; #@! TF.CreationDate,2025-03-14T14:35:32+00:00
; #@! TF.GenerationSoftware,Kicad,Pcbnew,8.0.8
; #@! TF.FileFunction,Plated,1,4,PTH
FMAT,2
INCH
; #@! TA.AperFunction,Plated,PTH,ViaDrill
T1C0.0118
; #@! TA.AperFunction,Plated,PTH,ComponentDrill
T2C0.0118
; #@! TA.AperFunction,Plated,PTH,ViaDrill
T3C0.0236
; #@! TA.AperFunction,Plated,PTH,ViaDrill
T4C0.0315
; #@! TA.AperFunction,Plated,PTH,ComponentDrill
T5C0.0315
; #@! TA.AperFunction,Plated,PTH,ComponentDrill
T6C0.0394
; #@! TA.AperFunction,Plated,PTH,ComponentDrill
T7C0.0469
; #@! TA.AperFunction,Plated,PTH,ComponentDrill
T8C0.0669
%
G90
G05
T1
X2.0768Y-2.0856
X2.0817Y-2.438
X2.2982Y-3.1063
X2.6939Y-6.3022
X2.6949Y-6.6772
X2.8382Y-5.3661
X2.9008Y-4.0035
X2.9012Y-3.913
X2.9498Y-2.5266
X2.9646Y-3.5541
X3.0043Y-3.6114
X3.0043Y-4.0516
X3.0201Y-5.4929
X3.028Y-3.7535
X3.0795Y-3.811
X3.1053Y-2.5955
X3.123Y-2.0935
X3.1663Y-6.3022
X3.1752Y-5.849
X3.1795Y-4.0898
X3.2274Y-5.8496
X3.2294Y-3.9458
X3.252Y-5.2155
X3.2899Y-4.6449
X3.3677Y-4.3882
X3.3721Y-5.8299
X3.4421Y-4.5413
X3.4439Y-6.7579
X3.5935Y-6.2963
X3.5965Y-6.5591
X3.6002Y-5.613
X3.6024Y-6.8179
X3.652Y-6.1051
X4.0463Y-3.6427
X4.072Y-4.3866
X4.1094Y-5.0004
X4.1388Y-5.9827
X4.253Y-6.0368
X4.3307Y-5.5535
X4.3701Y-5.8715
X4.4569Y-3.7539
X4.4898Y-3.9417
X4.5138Y-5.9689
X4.5862Y-5.211
X4.5899Y-5.3652
X4.6028Y-4.4846
X4.627Y-6.0319
X4.649Y-5.5382
X4.6663Y-5.5543
X4.6714Y-5.3664
X4.7362Y-5.9738
X4.7454Y-5.3833
X4.8039Y-4.6177
X4.8291Y-4.739
X4.8598Y-5.2311
X4.9075Y-7.4734
X4.95Y-4.3941
X4.9894Y-4.3945
X5.015Y-4.4953
X5.052Y-7.8157
X5.0902Y-4.6079
X5.102Y-3.0248
X5.1043Y-4.1559
X5.1173Y-5.4976
X5.1205Y-4.9933
X5.1244Y-3.6413
X5.1689Y-5.4976
X5.1855Y-5.1102
X5.224Y-4.1559
X5.2375Y-6.0483
X5.2654Y-5.4976
X5.2693Y-2.7043
X5.2776Y-4.0646
X5.3675Y-5.3307
X5.3768Y-4.4453
X5.3783Y-4.3449
X5.3783Y-4.3978
X5.3833Y-6.0964
X5.4663Y-5.833
X5.4777Y-3.4594
X5.4972Y-2.4421
X5.5177Y-6.8366
X5.5195Y-6.7278
X5.5455Y-5.6617
X5.5455Y-5.7117
X5.55Y-2.4409
X5.5894Y-3.4594
X5.6504Y-5.4374
X5.6504Y-7.2169
X5.6557Y-3.4879
X5.6573Y-2.8512
X5.6594Y-2.337
X5.6663Y-3.3871
X5.6689Y-3.9661
X5.6898Y-4.6639
X5.6917Y-6.9797
X5.6961Y-4.7828
X5.7014Y-5.7847
X5.7335Y-3.0173
X5.7782Y-4.2763
X5.8008Y-4.1686
X5.8185Y-3.1713
X5.8315Y-7.2169
X5.8644Y-6.0743
X5.865Y-6.5211
X5.8817Y-6.8537
X5.9175Y-2.3708
X5.924Y-3.198
X5.9272Y-4.276
X5.9518Y-2.6958
X5.9522Y-2.6489
X5.9617Y-4.3394
X5.9634Y-7.2169
X6.0018Y-7.2169
X6.015Y-6.8575
X6.0305Y-5.3738
X6.0335Y-3.3591
X6.0339Y-3.4594
X6.0547Y-2.1666
X6.0624Y-5.5775
X6.0799Y-3.6319
X6.1224Y-2.9496
X6.1541Y-6.1046
X6.172Y-7.2169
X6.1783Y-2.1666
X6.1886Y-5.193
X6.2254Y-6.0597
X6.2278Y-5.9393
X6.2484Y-3.4764
X6.2673Y-2.9496
X6.2899Y-2.1666
X6.3276Y-5.2579
X6.3324Y-2.3273
X6.338Y-4.2535
X6.338Y-4.3165
X6.338Y-4.3807
X6.3646Y-3.6957
X6.3656Y-7.0222
X6.5798Y-4.432
X6.615Y-4.5336
X6.6378Y-5.2579
X6.7772Y-6.428
X6.8071Y-6.1894
X6.9165Y-3.8589
X6.9205Y-3.3483
X6.9529Y-2.7312
X7.1185Y-5.6795
X7.1928Y-4.1525
X7.1932Y-4.3784
X7.2129Y-5.7638
X7.2149Y-6.011
X7.2241Y-4.4737
X7.2241Y-4.7174
X7.225Y-5.2256
X7.2293Y-5.3252
X7.2305Y-5.5606
X7.2311Y-6.0941
X7.2311Y-6.3319
X7.2594Y-5.6795
X7.3132Y-5.037
X7.4008Y-3.0955
X7.4738Y-3.0945
X7.5067Y-3.1538
X7.5154Y-7.7051
X7.6085Y-4.5021
X7.6136Y-5.3458
X7.6547Y-6.1354
X7.6796Y-4.5029
X7.6801Y-5.3461
X7.6925Y-6.1354
X7.7457Y-3.7994
X7.8565Y-3.0933
X8.0789Y-3.9093
X8.0843Y-7.7031
X8.0907Y-4.4773
X8.0966Y-3.8022
X8.103Y-2.953
X8.1065Y-5.3214
X8.1087Y-6.1106
X8.1288Y-4.3202
X8.1433Y-5.9307
X8.1437Y-3.0609
X8.1797Y-5.163
X8.2272Y-6.2354
X8.29Y-4.6529
X8.2927Y-5.4958
X8.3765Y-4.319
X8.3894Y-5.9307
X8.4156Y-5.1614
X8.4232Y-4.6693
X8.4906Y-2.815
X8.515Y-7.6465
X8.576Y-2.9264
X8.587Y-2.8449
X8.6614Y-3.0967
X8.6622Y-3.0291
X8.7461Y-2.7323
X8.7819Y-2.7079
X8.8417Y-2.6921
X8.8591Y-4.6701
X8.9197Y-2.8603
X8.9252Y-2.9197
X9.015Y-4.3319
X9.0161Y-3.4343
X9.0161Y-3.7323
X9.0161Y-4.7311
X9.0165Y-4.5315
X9.0339Y-2.274
X9.1299Y-6.8606
X9.2543Y-4.8319
X9.298Y-2.7559
X9.3303Y-5.1071
X9.3311Y-3.8319
X9.3311Y-4.3327
X9.3311Y-4.7311
X9.3311Y-5.2071
X9.3315Y-3.7319
X9.3315Y-5.6063
X9.3323Y-4.5315
X9.3335Y-3.4339
X9.4024Y-7.2547
X9.8031Y-4.0319
X9.8035Y-4.6319
X9.8035Y-4.8319
X9.8039Y-3.5319
X9.8323Y-7.2878
X9.8433Y-4.1319
X9.8433Y-5.0071
X9.8433Y-5.1071
X9.8437Y-5.2067
X9.8437Y-5.3071
X9.8441Y-4.2815
X9.9819Y-7.3276
X10.0185Y-7.3528
X10.0657Y-2.2469
X10.1807Y-3.1524
X10.248Y-3.1799
X10.2484Y-2.9043
X10.3035Y-3.0295
X10.3413Y-3.2366
X10.3504Y-3.0791
X10.411Y-5.0106
X10.4213Y-3.1567
X10.4346Y-5.2382
X10.4394Y-2.9043
X10.4614Y-5.1031
X10.489Y-3.3972
X10.489Y-4.8756
X10.526Y-2.9043
X10.5553Y-3.2781
X10.7197Y-4.1299
X10.7213Y-4.1886
X10.7213Y-4.8437
X10.7213Y-4.9449
X10.7496Y-2.6728
X10.7657Y-2.2638
X11.0146Y-6.235
X11.0232Y-3.4315
X11.0232Y-4.1303
X11.0232Y-4.8441
X11.0232Y-4.9449
X11.5346Y-3.3311
X11.5346Y-3.4362
X11.5346Y-4.2083
X11.5346Y-4.5673
X11.5346Y-4.9449
X11.5346Y-5.0433
X11.535Y-3.5315
X11.7352Y-5.4116
T2
X2.7982Y-2.4754
X2.7982Y-2.5148
X2.8376Y-2.4754
X2.8376Y-2.5148
X3.25Y-6.6969
X3.25Y-6.7362
X3.2894Y-6.6969
X3.2894Y-6.7362
T3
X3.1886Y-4.8835
X3.3638Y-4.742
X3.364Y-4.6396
X4.2354Y-4.7346
X5.4905Y-6.6062
X6.372Y-7.7539
X10.7827Y-7.7685
X10.9079Y-7.7429
X11.5504Y-5.2457
X11.6815Y-5.2469
T4
X4.3746Y-5.939
T5
X3.4492Y-3.5469
X3.45Y-3.8098
X3.4512Y-4.2126
X3.5492Y-3.4469
X3.55Y-3.9098
X3.5512Y-4.2126
X3.6492Y-3.5469
X3.65Y-3.8098
X3.6512Y-4.2126
X4.1201Y-4.1831
X4.1201Y-4.5579
X4.1201Y-4.9264
X4.2201Y-4.1831
X4.2201Y-4.5579
X4.2201Y-4.9264
X4.3201Y-4.1831
X4.3201Y-4.5579
X4.3201Y-4.9264
X4.5506Y-3.5732
X4.6506Y-3.5732
X4.7506Y-3.5732
X5.56Y-6.3184
X5.66Y-6.3184
X5.76Y-6.3184
X6.0037Y-6.3184
X6.1037Y-6.3184
X6.2037Y-6.3184
X6.4421Y-6.3184
X6.5421Y-6.3184
X6.5978Y-5.7086
X6.5978Y-5.8086
X6.5978Y-5.9086
X6.6421Y-6.3184
X6.7925Y-6.7073
X6.7925Y-6.9073
X6.7925Y-7.0073
X6.7925Y-7.1073
X6.7925Y-7.2073
X6.9925Y-6.7073
X6.9925Y-6.9073
X6.9925Y-7.0073
X6.9925Y-7.1073
X6.9925Y-7.2073
T6
X3.1205Y-4.678
X3.1217Y-4.4689
X3.122Y-4.2709
X4.7094Y-4.1024
X4.9793Y-3.5787
X5.1996Y-4.7547
X5.2512Y-5.7602
X5.4346Y-4.7547
X5.5406Y-7.564
X5.5406Y-7.664
X5.6406Y-7.564
X5.6406Y-7.664
X5.7406Y-7.564
X5.7406Y-7.664
X5.8406Y-7.564
X5.8406Y-7.664
X5.9065Y-5.792
X5.9406Y-7.564
X5.9406Y-7.664
X6.4055Y-5.4748
X6.74Y-2.2817
X6.74Y-2.3817
X6.84Y-2.2817
X6.84Y-2.3817
X6.94Y-2.2817
X6.94Y-2.3817
X7.04Y-2.2817
X7.04Y-2.3817
X7.14Y-2.2817
X7.14Y-2.3817
X7.5289Y-2.2813
X7.5289Y-2.3813
X7.6289Y-2.2813
X7.6289Y-2.3813
X7.7289Y-2.2813
X7.7289Y-2.3813
X7.8289Y-2.2813
X7.8289Y-2.3813
X7.9289Y-2.2813
X7.9289Y-2.3813
X8.2638Y-2.2817
X8.2638Y-2.3817
X8.3638Y-2.2817
X8.3638Y-2.3817
X8.4638Y-2.2817
X8.4638Y-2.3817
X8.5638Y-2.2817
X8.5638Y-2.3817
X8.6638Y-2.2817
X8.6638Y-2.3817
X8.7638Y-2.2817
X8.7638Y-2.3817
X8.8638Y-2.2817
X8.8638Y-2.3817
X9.1992Y-2.2823
X9.1992Y-2.3823
X9.2992Y-2.2823
X9.2992Y-2.3823
X9.3835Y-7.5642
X9.3835Y-7.6642
X9.3992Y-2.2823
X9.3992Y-2.3823
X9.4835Y-7.5642
X9.4835Y-7.6642
X9.4992Y-2.2823
X9.4992Y-2.3823
X9.5835Y-7.5642
X9.5835Y-7.6642
X9.5992Y-2.2823
X9.5992Y-2.3823
X9.6835Y-7.5642
X9.6835Y-7.6642
X9.6992Y-2.2823
X9.6992Y-2.3823
X9.7835Y-7.5642
X9.7835Y-7.6642
X9.7992Y-2.2823
X9.7992Y-2.3823
X9.8835Y-7.5642
X9.8835Y-7.6642
X9.9835Y-7.5642
X9.9835Y-7.6642
X10.0835Y-7.5642
X10.0835Y-7.6642
T7
X2.4006Y-4.8693
X2.4006Y-4.9693
X4.2689Y-7.6264
X4.3689Y-7.6264
X4.6575Y-2.3531
X4.7575Y-2.3531
X5.0622Y-2.3531
X5.1622Y-2.3531
X7.4157Y-7.4157
X7.5157Y-7.4157
X7.6157Y-7.4157
X7.7157Y-7.4157
X8.0406Y-7.4157
X8.1406Y-7.4157
T8
X2.4016Y-3.6502
X2.4016Y-3.9163
X2.4016Y-4.2939
X2.4016Y-4.56
M30
